<svg xmlns="http://www.w3.org/2000/svg" width="1000" height="1375" style="background-color:#eae6e2" viewBox="-80 -110 160 220">
  <path fill="none" stroke="#41403a" stroke-linecap="round" stroke-linejoin="round" stroke-width=".3" d="M-66.545-95.309v1.678h-.994v-5.305h-.083v8.178h5.272v.005h-.597v-3.804h-.97v3.663h1.19v-1.846h-.96v-5.672h-.445v7.744h2.283v-7.61h-2.948v4.376h3.91l-5.658-1.407m13.428 2.486v-1.683h.333v1.154h-3.973v-2.677h5.719v2.12h-7.552v-1.788h-.107v.285h.766v3.032h6.007v-6.107h-3.802v-.526h-1.892v7.612h2.48v-4.121h-3.444l5.465 2.699m7.011-2.398v3.838h.545v-6.668h2.207v1.393h-1.196v2.707h-4.555v-3.621h8.385v5.452h.162v.318h-6.638v-5.611h-.992v3.714h.81v-4.72h1.993v.535h4.007l-4.728 2.663m10.403.081v-3.193h1.228v5.578h1.209v-3.55h.174v.738h-5.717v-.624h6.48v5.271h-.834v-4.114h-1.967v-.76h4.395v3.53h-.846v-3.904h-.184v-1.512h.67l-4.608 2.54m6.354 1.07v-4.426h3.704v.167h.782v3.59h-.068v.226h1.203v-4.189h-2.79v4.818h-2.358v-2.601h5.644v.366h1.425v-.667h-4.344v4.131h3.166v-1.55h1.757l-8.12.135m18.391-.121v1.68h-1.812v-1.046h-4.188v-2.532h5.254v-.332h-2.758v3.72h1.944v.564h-6.395v-4.675h2.891v4.912h-2.47v-3.05h2.56v4.21h2.806v-3.833h-.753l2.921.382m2.826-5.035v6.604h6.076v-6.609h-6.813v2.172h1.273v6.36h5.145v-1.256h-6.677v-5.731h8.046v4.135h-6.125v-4.433h4.932v6.728h-2.05v-.806h-4.55v-4.624h3.48l-2.737-2.54m10.746 1.949v-.537h5.982v1.898h-.389v-1.235H3.105v.889h3.372v-1.236H1.431v2.116h1.656v-.647h5.477v.994H4.17v3.778h1.27v-1.322h1.55v-2.477H4.556l-1.941-2.221m8.025-.395v-.932h3.635v7.625h2.97v-2.858h2.173v2.776h-2.939v-6.06h-4.52v5h-1.203v-5.965h6.105v2.823h-3.91v-1.644h1.513v-2.07h-1.709v1.119h5.748l-7.863.186m10.317 1.863v-1.284h1.986v.952h4.373v2.427h-5.232v1.06h5.808v-6.584h-6.744v2.693h4.058v1.741h-.376v-2.308h-2.344v6.679h5.984v-5.254h-7.779v-3.468h1.338l-1.072 3.346m11.055 3.811v.217h.426v-7.687h-1.719v.525h2.171v1.862h.184v.358h1.547v-.105h-.346v-2.144h-1.013v3.154h6.013v3.102h-2.82V-97.5h-4.878v2.616h4.207l-3.772 2.885m17.456-.307v1.856h-.624v-3.817h-.88v-4.563h-5.258v1.031h5.08v-1.185h-5.718v6.832h6.988v-1.18h-5.274v.67h3.71v-.033h-1.235v-5.82H44.13v8.216h5.319l.02-2.007m5.516.903v-3.536h-.06v-1.606h.159v1.186h-1.622v.24h1.055v-3.65h-.229v8.02h2.688v-3.86h-.265v-1.336h1.699v-1.15h-5.86v-1.08h3.447v7.336h1.757l-2.769-.564m10.016.003v-3.305h.106v.094h.679v3.567h.896v-5.002h.941v3.905h-6.357v-3.815h7.374v-.11h.064v.437H61.38v-.668h5.458v1.006h-4.195v-3.042h2.7L65-91.4m-132.487 7.703v-4.66h3.481v7.752h1.887v-8.033h-3.664v7.959h3.402v-1.14h-5.813v-2.016h-.21v-.23h-.9v-4.822h2.543v3.737h.304v.72h3.416v.014h.745l-5.19.719m15.346 2.869v-7.735h-3.336v1.137h-2.787v3.57h-.443v-1.583h.425v.962h5.175v.042h-.166v-.855h-3.633v-.473h-2.24v-2.315h6.453v4.94h-3.145v2.585h4.618l-.92-.275m10.641-3.472v-.89h-5.853v-2.856h4.38v3.584h.393v1.933h.411v1.326h-2.443v-1.938h-.835v-4.7h3.945v2.107h.57v2.249h-6.185v-3.02h2.782v4.067h2.093l.742-1.862m2.301-5.14v1.691h7.451v.38h-7.158v.725h4.38v3.884h.529v-6.177h-3.839v6.435h5.881v-5.443h-.821v4.723h-3.773v-.562H-38.5v-1.273h3.043v-2.993h2.35l-6.09-1.39m13.009 4.202v3.484H-27.6v1.287h7.158v-.769h-3.817v-1.48h1.76v1.02h-5.19v-7.682h-1.639v.724h2.759v4.293h3.941v1.611h-.968v-4.178h-3.157v1.1h6.069l-5.505.59m7.231 3.046v-4.307h4.19v1.816h.88v-3.585h-.355v6.756h-2.03v-1.156h3.317v-1.606h.854v-4.51h-3.88v7.616h.988v-4.77h2.86v-2.575h-3.738v7.857h4.354l-7.44-1.536m17.213-3.958v-.469h-2.83v3.745h-.082v-1.118h3.48v-.227h-.501v-2.566h-4.24v6.062h3.623v-.129h.237v-8.454h-6.768v2.167h1.765v-.115h-1.06v4.08h2.384l3.992-2.975m7.985 4.997v-6.524h2.766v4.958H6.083v-6.458H1.855v6.452h5.55v.345h1.36v-2.966H3.05v-1.753h.494v2.702h4.507v-3.792H6.347v.609H9.26v5.349h-.223L6.24-81.152m12.357-3.128v-.495H15.17v-.565h-1.888v-.61h5.698v2.137h-8.285v-5.51h.67v4.037h1.848v.2h.176v.057h1.625v-.783h-4.35v-2.84h4v1.207H11.81l6.787 3.164m4.918.784v.313h.394v1.776h.203v.533h2.917v-3.72h-1.121v3.28H24.23v.767h3.834v-7.836h-2.216v7.167h-.251v-.941h-4.96v-6.62h3.297v6.185h3.38l-3.799-.904m10.042.008v.522h1.416v-2.335h-1.598v.617h2.764v4.198h3.528v.142h-.047v-.68h-3.584v-7.994h-3.475v-.462h-1.922v.352h1.236v6.386h4.329v-6.266h-3.429l.782 5.52m11.881-5.023v5.76h1.79v-1.46h1.875v.586h-7.408v-.555h7.03v-1.255h-6.783v1.877h1.42v-1.83h-1.104v4.473h4.515v-4.578h-5.402v.318h2.686v4.19h2.933l-1.552-7.526m8.37 3.274v3.497h-1.55v1.007h4.899v-3.208h1.955v.675h-4.356v-3.52h.044v.003h-.497v-1.889h-.453v6.474h5.042v-1.831h-8.164v-5.133h.856v4.648h4.6l-2.376-.723m11.224-3.356v3.877h1.056v3.95h1.402v-1.768h-.352v-1.393h-5.7v-1.474h1.259v-3.144h2.284v3.064h-3.639v-.11h-.335v-2.368h6.226v4.898h-2.334v-3.44h1.257l-1.124-2.092m-130.058 9.989v3.481h-.473v-2.863h2.475v3.794h1.607v-1.758h-.61V-78.2h-1.788v7.926h3.019v-1.796h-8.005v-4.07h7.187v-1.011h-6.029v5.822h2.706v-3.947h-2.233l2.144-3.33m7.801 1.361v.142h.88v3.233h5.627v2.405h-5.8v-2.648h5.465v.163h.494v2.293h-5.812v-1.947h-1.325v1.955h.678v-4.94h2.151v1.682h.504v2.275h2.055l-4.917-4.613m12.86 5.972v-.374h-2.683v-4.88h2.892v4.959h-2.563v-3.37h.76v3.256h-1.632v-7.582h-.958v3.596h.122v1.263h5.745v1.223h-2.585v-3.707h-.575v6.368h5.347l-3.87-.752m10.96.193v-4.937h2.583v2.665h-6.073v-2.259h-1.274v2.56h2.696v-4.785h4.444v3.624h-1.032v-4.473h-4.434v4.623h4.809v-2.45h-1.97v-.767h-3.883v6.654h6.342l-2.208-.456m10.725-3.455v2.325h1.873v-.685h-2.775v-4.555h-5.361v.315h1.355v6.269h5.274v-.886h-5.45v.704h4.562v-4.793h1.84v-.312h-.496v-2.357H-24.3v5.808h.866l.754-1.833m7.557-2.289v1.23h-2.764v3.476h7.161v-.16h-.705v-3.428h-7.552v-2.403h6.44v6.064h-6.561v-6.592h2.684v4.864h-1.447v1.868h-.13v-.967h3.317v-.803h-3.103l2.66-3.149m10.639 5.528v-.884h3.421v-1.259h-4.965v1.3h5.062v-1.302h-6.527v-4.932h2.543v2.99h-1.99v-1.434h1.382v-.967h3.979v1.102h-3.49v.294h2.212v2.437h-6.069l4.442 2.655m6.94-6.012v-1.254h2.05v.74H8.15v-.218H6.997v3.12H4.375v-3.654h.128v1.138H1.217v1.549h8.037v4.307H3.36v-2.925h2.994v-2.544H2.978v-.112H2.61l-.154-.147m15.204-.759v7.582h1.002v-4.957h-5.836v-2.54h3.906v2.729h-4.245v-3.669h.53v2.786h5.375v-.643h-3.268v2.04h1.093v-3.12h1.525v7.246h-.001v.15h.838l-.919-7.604m4.962 2.592v-2.195h5.974v2.556h-4.973v1.415h-1.2v2.693h4.04v-6.36h-5.047v1.959h1.3v-2.07h6.714v5.873h-6.441v-4.95h2.598v3.878h.855v-4.494h-4.566l.746 1.695m13.521 2.505v-5.155h.62v2.153h1.582v-1.497h-7.477v-.516h6.663v5.404h-.348v-.976h-5.26v.298h2.899v-3.588h-.197v.118h-.627v5.837h2.936v-3.225h1.484l-2.275 1.147m10.973-3.406v3.23h-2.945v1.932h.457v-5.47h-.363v-2.42h-2.898v3.377h-.462v-2.263h7.029v7.622h1.587v-.186h-1.467v-7.096h.72v2.842h-2.972v3.374h-1.024l2.338-4.942m8.192-.361v3.508h-1.32v.922h4.586V-76.4h-2.292v-2.504H52.94v1.662h-.931v4.69h6.068v-6.321h-4.695v4.917h5.49v.122H51.32v-2.845h3.82v2.066h1.311l-1.143-2.124m11.827-1.436v5.012h-2.452V-77.8h3.151v7.147h.484v-6.118h-3.672v-1.222h3.186v-1.064h-5.967v6.325h4.833v-3.488h-.252v-.313h-1.187v1.68h-.264v-.613H62.17l4.965-2.708M-66.547-61.71v-1.916h-.851v-5.508h-1.643v1.788h-.07v-.26h8.227v4.557h-3.476v1.108h-3.298v.702h3.45v-1.111h3.477v-.093h-1.336v-6.57h-4.867v2.89h4.419l-4.032 4.414m7.875-.425v-3.046h2.143v.46h1.614v-.01h.248v.142h1.898v.877h-5.26v1.18h5.392V-63h-1.744v1.136h-3.173v1.05h5.51v-7.97h-3.675v7.853h2.766l-5.719-1.202m10.5-1.701v1.134h4.962v-2.77h-4.243v4.92h5.898v-5.49h.398v1.57h-2.068v-1.126h-5.053v1.977h-.011v-.622h6.017v3.507h.61v-6.323h-6.023v6.27h5.8l-6.287-3.047m12.968-4.806v2.69h4.178v2.49h-5.394v-.94h3.966v2.836h-4.143v-2.438h-2.855v-5.095h1.165v5.484h1.02v-4.445h4.46v4.047h-6.119v-3.612h7.455v1.955h-7.8l4.067-2.973m9.84-.032v1.906h.303v1.531h-2.403v-2.939h4.03v.74h-5.507v-.194h7.811v3.891h-7.403v-1.298h2.317v2.843h-2.851v-6.06h4.992v7.141h-.637v-2.171h-1.852l1.2-5.39m9.457 3.492v4.876h5.464v-1.02h-4.12v-1.597h-.001v-1.283h3.365v-.594h-3.614v.64h3.904v.507h-7.206v.37h2.078v1.177h-3.016v-5.096h1.006v4.084h2.192l-.052-2.064m6.941-4.212v2.588h3.978v1.378h-3.36v.994h6.142v-4.74H-8.97v2.456h3.297v-2.37h-2.46v5.415h.06v.833h3.523v-.084h.726v-5.372h.229v.035h.02l-5.392-1.133M2.23-67.354v6.543h5.668v-8.39h-6.44v3.453h-.217v-1.006h3.655v.966H.924v-2.208h7.078v-.148h-.897v4.222H1.257v-2.748H4.59v-1.158h4.34v3.345H6.895L2.23-67.354m8.902 1.58v-.453h6.354v4.025h1.515v-2.102h-1.473v3.199h-2.171v-3.005h3.906v1.547h-1.157v-5.574h-.88v5.162h-1.277v2.32h1.81v.044h.954v-4.649h-5.676l-1.905-.514m9.532-.093v-2.796h4.229v1.715h-.47v-2.16h-2.287v7.63h2.139v-7.625h-2.733v4.554h4.695v-4.101h-2.261v7.548h1.964v-.072h-.9v-3.495h.476v.806h-3.754l-1.098-2.004m18.329 1.666v1.261h-3.145v2.006h1.492v-1.452h1.764v-.197h-1.149v-6.686h-6.389v4.33h2.526v4.327h4.63v-3.809h-1.564v.547h-5.52v-.25h6.53v-4.178h-2.67l3.495 4.1m9.32 1.665v-3.744H47.07v1.553h-1.235v2.712h-4.402v-3.02h2.26v1.961h1.447v-2.347h-3.353v2.292h3.009v-3.506h.733v3.162h-2.89v-4.12h5.993v2.715h-4.276l3.956 2.342m6.318-6.137v1.859h.43v.93h3.431v-.373h-1.935v-1.214H51.72v3.758h-.63v-2.83h4.773v5.827h2.432v-7.28h-.215v-.038h-.297v7.544h1.902v-.339h-2.057l-2.997-7.844m10.912 7.383v-.75h-4.84v-7.054h1.67v7.8h2.571v-3.91h-1.687v-.426h-1.26v2.278h1.667v-.223h-.733v-3.412h.777v3.558h.133v.302h1.402v-1.209h2.26l-1.96 3.046m-128.527 8.494v-.912h-5.378v-.97h3.693v1.03h-3.46v.656h3.35v-1.337h2.517v3.425h-.14v-.982h-5.33v-.046h-.543v-1.643h1.384v-2.086h-1.914v-1.489h1.62l4.201 4.354m10.158-5.368v5.18h-1.803v-.011h-.502v-3.647h.43v1.847h.418v3.148h-3.165v-7.296h-.195v-.496h-1.664v.42h2.112v1.746h-.113v-1.406h1.83v.532h2.642l.01-.017m4.897 4.379v2.343h1.753v-.448h-2.237v-2.582h5.167v-1.424h1.35v-1.724h.668v3.498h-.508v-3.562h-7.427v-1.344h1.33v7.275h.24v.846h4.738v-2.799h-5.487l.413-.079m16.409-.518v-.998h-6.412v3.366h.205v1.147h4.9v-3.392h1.195v-3.233h-6.949v1.317h6.629v-1.579h1.158v4.372h-5.263v1.245h5.32v.389h-5.806v-3.235h1.09l3.933.601m7.19-4.162v6.833h-1.82v-.555h-2.596v-4.721h3.135v-1.027h3.458v7.055h-.115v-.696h-4.218v-2.455h5.215v-.255h-.893v-4.287h-3.938v6.144h4.278v-5.68h-2.026l-.48-.356m7.519-.496v3.972h1.539v-1.191h2.434v2.525h-5.053v1.7h-.636v-3.13h1.838v.045h1.087v-4.018h-2.106v7.852h3.62v-.343h-1.398v-7.06h-.98v5.377h.496l-.841-5.73m7.454 6.692v-6.34h3.452v7.949h4.683v-4.109h-3.22v2.492h3.171v-2.87h-4.44v-3.67h-1.173v2.828h5.422v.809h-5.292v-.974h4.542v-2.706h-4.943v1.068h5.308l-7.51 5.523M1.48-57.504v3.03h5.602v.44H.772v-4.8h3.031v6.018h2.343v-5.373h.265v.948H2.184v4.84h6.197v-4.118H6.507v-.967h-5.42v.433H3.72v3.977h1.688L1.48-57.504m17.29 3.258v.237h.554v2.313h-6.512v-5.717h-.914v4.508h3.265v-1.765h.649v3.239h-1.725v.058h.158v-7.814h-2.807v2.954h6.327v5.791h1.2v-3.794h-.312l.116-.01m4.216-1.157v-.503h5.88v1.113h-2.978v2.904h-3.284v-7.332h-1.07v3.778h-.019v.362h2.784v-4.132H21.2v1.92h.626v3.414h-.06v-.492h5.017v-.926H23.54l-.555-.106m7.8 1.36v-3.953h7.042v7.123h-.362v-.911h-4.791v-6.144h5.182v7.042h-.9v-3.346h1.427v-2.577h-4.564V-52h-2.454v-4.141h6.002v3.843h1.354v-2.115h-.998l-6.938.37m15.007 2.801v.252h1.21v-3.756H45.08v-.841h-3.098v2.392h2.44v-4.757h3.769v-.305h-2.525v5.667h1.655v-.504h-2.818v-5.462h.593v3.335h-1.202v2.458h2.671l-.773 1.521m8.585-5.683v-1.031h3.165v6.134h-4.896v-5.955h5.576v-.313h-.635v5.966h1.797v.879h-4.13v-2.58h-3.412v.59h3.006v-3.825h-1.089v3.71h-.082v.363h1.474l-.774-3.938m12.063 2.213v-2.03h-1.423v1.76h-.373v-2.653h5.085v7.23h-.375v-1.436h-6.789v-7.39h-1.098v3.402h7.249v1.522h-1.26v1.92h.834v-5.379h.002v-.161h.195l-2.048 3.215m-131.252 7.949v2.904h-4.39v-4.652h4.09V-46h3.847v.603h-5.786v-1.59h-.33v-.872h5.205v6.559h-2.23v-1.386h1.626v-.51h-3.175v1.806h.056v1.004h5.43l-4.343-6.376m13.733 6.146v-2.648h-4.788v2.358h2.626v-4.818h-5.422v.4h2.154v1.128h4.7v-4.279h-2.641v5.356h-.643v-2.404h-2.622v4.295h2.488v-5.83h-1.602v.695h3.867l1.882 5.747m1.889-3.422v-3.79h7.654v1.008h-4.084v-1.967h-.757v4.626h5.255v.37h-7.996v-4.617h5.06v7.88h2.593v-5.525h-1.015v3.9h1.686v-1.143h-5.239v1.522h-1.9l-1.257-2.264m15.87 1.174v-2.588h-4.69v3.402h-.861v-5.05h1.093v5.569h2.247v-6.95h.475v1.878h.956v5.136h-2.126v-1.473h1.929v1.502h-1.665v-.239h-.307v-1.463h1.286l1.663.275m4.111-2.977v-2.036h7.05v-1.3h-6.904v1.545h8.342v5.954h-6.294v-4.876h3.286v-1.974h-.853v4.135h2.695v-3.69h-1.117v2.824h-3.976v-1.144h3.09v5.612h1.724l-7.043-5.05m9.825-3.635v.751h2.93v4.53h5.612v1.06h-4.207v-3.274h.845v4.382h-4.25V-44h7.266v-1.215h-5.45v.552h3.255v-2.331h-3.03v3.522h-.158v-.696h4.778l-7.59-5.308m18.013 1.602v3.082h-2.802v3.36h-1.21v-6.858h2.138v1.959h-.67v5.866h3.525v-.631h-2.843v-5.28h-.769v-2.831H-9.19v1.456h7.221v-.568h-2.789v3.988h2.213l1.173-3.543m9.452 5.29v-4.851H1.192v.369h2.439v4.203h2.42v-5.827H3.866v6.352h5.509v.68h-6.26v-3.941H2.058v3.506h6.998v-.41H7.584v.523H.956v-5.589h8.168l-1.045 4.985m5.701-.86v1.379h-2.115v-2.507h5.564v.915h-5.23v1.568h-.633v-4.174h6.503v5.586h-.537v-1.878h.755v-5.725h-1.899v-.706h-3.244v2.63h3.4v-1.498h1.074l-3.639 4.41m15.099 1.02v-1h-5.783v-2.548h5.13v-2.102h-.856v5.507h-.191v-.54h-2.61v-5.194h1.758v.164h-.055v.257h1.778v.069h-.253v7.276h1.26v-2.762h-4.972l4.794.873m5.772.954v-5.235h.665v3.181h-3.05v1.637h.116v1.035h4.224v-6.014h-2.223v-2.25h-3.158v2.625h4.748v5.321h-.121v-.118h-1.087v-5.252h.793v3.403h-.127l-.78 1.667m13.62-2.876v-2.074h-2.49v5.36h-.177v-2.25h-.873v-4.205h4.6v5.446h-7.883v-4.08h6.986v-.496h-4.117v-1.783h.871v3.043H43.16v-.226h-2.397v-3.396h1.919l5.587 4.66m7.329-4.133v6.717h-3.591v-.38h-.76v-4.745h2.956v-2.087h-2.036v6.627h6.677v-2.538h-3.997v-1.896h-.387v-1.793h-.099v.047h.497v2.47h4.087v1.5h-2.04l-1.307-3.922m5.366 2.673v-1.325h2.222v1.678h-.864v4.602h4.789v-3.737h-.747v-3.457h.884v4.172h-6.657v-5.128h1.6v6.826h6.95v-.465h-1.848v.064h.967v-4.908h1.2l-8.496 1.678M-66.062-31.612v.342h1.77v-1.262h2.067v1.109h-2.97v-5.848h-2.338v-2.063h-1.206v2.468h2.695v5.408h-.385v-2.647h5.71v1.224h-3.548v1.554h-.718v-4.552h3.576l-4.653 4.267m13.187-4.763v3.174h-2.872v-6.147h-2.92v3.762h-.551v-2.562h5.73v1.276h-2.423v5.014h-1.78v.356h2.215v-5.967h-3.375v.733h3.53v.164h1.286v5.412h.093l1.067-5.215m11.81 5.762v-2.555h-4.35v-4.823h3.188v7.459h.747v-4.855h-5.678v-1.618h.983v4.582h4.36v-5.527h-.818v4.602h-4.242v-1.868h-.28v-2.366H-48.7v1.27h5.23l2.406 5.7m10.436-7.114v6.65h-2.947v-6.205h-5.02v2.037h2.214v1.91h-.251v-2.16h-.712v-2.833h2.962v5.91h2.471v-5.943h-3.027v3.323h-1.177v2.919h5.638v.818h-4.385l4.234-6.426m6.437 2.888v4.045h1.586v-2.032h-.89v-4.314h-3.392v.793h2.864v5.867h3.568v-.774h-5.066v-7.095h1.317v5.933h3.302v-1.153h-7.307v.53h4.217v1.855h-.926l.727-3.655m10.965.193v-.375h-2.281v-3.155h2.23v2.374h-6.034v-3.43h.962v4.652h5.243v-.543h-2.607v4.418h3.459v-.17h-.105v-1.05h-6.255v-3.325h2.467v2.375h1.698l1.223-1.771m3.956 2.391v-5.973h5.519v.752h3.065v5.477H-8.91v-4.896h2.718v4.413h4.294v-6.193h-4.628v5.077H-7.94v.7h4.419v-4.51H-7.91v5.2h7.455v1.689h-.372l-8.442-1.736m15.124-.775v2.33h2.676v-5.384h-.059v.087h-.028v.337H.865v-2.857H4.25v-.756H.953v1.27h7.032V-39H2.398v-.254H.952v1h4.906v6.372H1.353l4.502-1.146m6.97-2.407v-1.212h1.937v.009h-.346v-1.411h2.437v3.212h-2.071V-36.6h.022v-.342h-1.662v1.695h.179v.459h2.396v3.394h-1.829v-.131h.012v.044h.017l-1.092-3.955m9.767 3.554v-6.073h5.226v-.76H23.3v3.468h-.264v-1.9h-.144v-.046h-.98v4.952h6.773v-3.115h-5.412v-.365h5.996v3.79h-6.9v-7.096h-.809v4.835h6.864l-5.832 2.31m13.579-4.684v-1.51h1.211v5.707h.621v-5.847H35.86v7.288h.872v-4.403h-4.54v4.286h4.381v-5.89h-3.416v1.611h-1.082v3.25h-.804v-3.888h7.051v-1.444h-6.35l4.2.84m13.243 4.249v1.518h-1.85v-1.203h-5.988v-2.079h6.868v-2.71h-4.55v4.475h5.425v.955h-4.454v-5.186h.859v4.415h-4.421v-4.7h3.1v-2.371h-3.21v1.995h.378l7.843 4.891M57.8-34.44v-4.524h-4.73v3.293h-2.292v-3.704h.563v2.937h5.052v-1.129H50.68v-1.12h2.88v4.351h4.336v-4.734h-5.498v8.209h5.079v-1.899h-1.3v-5.5h.185l1.439 3.82m3.406-3.119v1.844h8.15v3.864H61.72v-2.166h6.967v-1.16h-5.964v-2.098h-1.29v2.036h2.208v1.126h5.794v2.531h-6.237v-3.901H61.42v-.338h8.027v4.658h-4.231l-4.009-6.396M-62.301-24.46v4.103h2.017v-.16h-.982v-4.411h-4.077v-3.01h2.85v5.27h-1.191v-5.237h1.082v5.676h-6.512v-5.664h6.582v5.994h-6.178v-3.927h-.563v-3.193h.817l6.155 4.559m7.605-.48v1.689h-1.61v.508h2.767v-4.664h-5.726v-1.642h1.006v4.92h7.14v.335h-7.279v-.536h6.098v2.832h-4.485v-3.506h1.175v-4.068h-2.684v5.596h.594l3.004-1.463m13.498 4.299v-3.183h-7.463v-2.875h4.099v2.6h3.443v.529h-6.053v-3.275h1.95v-.465h-3.687v.873h4.728v4.796h-2.149v-2.259h5.8v2.299h-5.75v-1.1h3.95l1.132 2.06m3.694-1.26v-6.562h3.02v5.624h.5V-28.9h-2.798v3.99h2.103v1.082h-3.61v-.766h4.013v2.87h-3.454v.504h3.47v-.366h-2.884v-5.608h.164v.874h4.54l-5.064 4.418m15.506-.698v-5.268h.074v.354h1.24v4.888h-1.775v.916h-4.46v-4.991h2.551v4.276h2.8v-4.319h-3.367v2.078h1.081v-3.83h-.793v4.703h-3.585v-.485h6.309l-.075 1.678m10.022-5.395v.303h.85v2.862h-3.329v1.566h-2.015v-.038h.043v.234h1.241v-3.55h.17v1.528h-1.079v3.73h.376v-7.632h-1.967v8.145h5.198v-.916h-4.813l5.325-6.232m7.118-.577v4.43h3.429v-.811h-4.613v3.081h-2.455v-2.582h5.082v-1.652h1.039v4.594h-3.615v-.118h-.262v-1h3.871v.639h-6.69v-5.881h6.942v-.757h-3.422l.694.057m13.443.689v3.079H4.81v-1.826h.171v.98H1.586v1.13H7.51v2.325H.814v-5.819h6.873v6.608H5.09v-4.319h3.95v2.697H5.137v-1.566h.627v2.746H1.499l7.086-6.035m4.435 2.487v-.217h-2.316v-3.647h-.174v.02h.678v2.165h1.483v-1.075h3.547v-.36h-1.956v-.621h-2.848v3.653h.606v3.28h-1.408v-6.952h.714v2.685H16.7l-3.68 1.069m14.307-.939v4.05h1.966v.275H21.76v-1.623h-.419v-1.647h2.24v1.287h-2.514v-2.797h2.995v5.587h1.664v-.717H21.88v-1.862h.401v2.031h.026v.258h1.278l3.741-4.842m10.06 1.812v2.465h-5.637v-1.577h.575v2.592h4.289v-5.761h-1.481v1.533h-1.745v.048h.251v1.523H31.89v.864h3.94v.859h-4.044v-1.006h3.782v-.052h.473l1.345-1.488m8.466 3.293v.782h2.496v-5.98H46.98v1.145h-4.708v4.78h6.3v-5.301h.775v4.243h-5.434v-1.134h2.718v-3.434h.943v3.742h.875v-3.937h-1.727v.97H43.01l2.842 4.124m13.091-4.781v2.761h-4.135v-3.744h-1.213v3.026h5.754v1.719h-.992v-3.991h-1.085v2.52h-5.626v-1.44h2.72v-4.09h-3.232v2.349h2.89v4.824h-3.419v-6.818h1.722l6.616 2.884m5.272 4.454v-7.16h-.604v4.69h6.103v3.222h-1.972v-.313h-1.423v-7.531h-1.795v.75h3.37v7.017h-.167v-.387h-3.003v-6.385h4.974v7.073h-2.05v-.179h.468l-3.9-.797M-68.652-17.53v2.397h2.357v2.82h4.86v-3.634h.243v1.291h-2.969v3.591h-.29v-2.582h-2.729v-3.656h-.326v-2.118h-1.584v1.4h6.833v6.348h-4.527v-3.243h1.004l-2.872-2.614m9.576-1.885v2.222h1.272v5.784h2.445v-6.712h2.286v2.325h-5.865v-1.197h2.168v1.185h5.612v1.526h-.676v-3.973h-1.799v.118h-.091v.003h.988v4.672h-3.684l-2.656-5.953m17.286 5.057v-2.297h-3.926v-1.812h.006v.015h.063v.396h2.557v2.422h-5.96v-2.112h7.708v2.656h-5.045v1.456h-.904v-4.489h4.222v3.053h-3.319v1.487h-1.536l6.134-.775m3.73 2.346v-.271h7.643v1.955h-.253v-1.457h-7.366v-.319h-1.188V-18.2h4.814v5.932h4.045v1.48h-2.52v-3.965h-1.347v3.666h.012v-.527h-2.227v-1.384h.995l-2.608.986m10.152-5.37v5.884h2.377V-18.4h1.403v7.04h-1.678v-7.769h-3.157v1.97h1.929v1.018h4.273v2.118h-6.294v-3.957h6.166v3.37h-.734v-2.83h-4.96v2.201h2.07l-1.395-2.143m10.585 3.717v-3.842h-1.629v.178h1.021v5.125h7.07v-.477h-2.043v-2.047h-1.73v1.556h-1.328v1.37h-.992v-5.027h1.33v-1.92h-.741v4.894h-2.813v-4.598h3.794l-1.94 4.788m10.834-3.433v3.7h.435v1.348H-8.8v-4.21h5.347v-.61h-2.326v6.479h5.054v-1.783h.506v1.857h-.194v-.335H-1.64v-6.393h-4.62v4.212h3.011v-3.391h.38l-3.621-.874M6.003-14.8v-3.927H3.356v3.224H1.797v2.089h.893v-4.79h3.127v7.186h.706v-5.625H5.154v1.423h-1.82v-.54H.954v-1.53h.366v1.04h6.233v3.978h2.046l-3.596-2.527m12.931 4.186v-2.544H14.48v-4.822h2.39v2.267h2.373v4.159h-6.126v-5.156h2.445v3.805h.192v1.351h-1.82v-.036h.098v.614h3.183v-2.529h-4.79v-5.727H11.06l7.875 8.618m5.303-6.339v-1.741h-.04v7.74h1.613v-.131h.535v-7.213h-1.248v3.49h1.034v4.302h2.137v-6.152h-2.846v3.236h-2.83v-4.746h4.464v4.555h-5.405v.067h.83l1.756-3.407m14.546 6.309v-3.28h-8.158v-4.979h2.496v3.235H31.4v.051h-.8v-3.316h1.384v6.606h6.438v-3.954h-.7v4.852h-3.983v-.82h5.268v-1.913h.008v.39h-7.546l7.315 3.128m7.372-4.126v-3.17H47.2v3.497h.632v-4.55h-5.083v.589h3.243v-.46h-3.577v-.245h-1.079v2.89h5.73v1.55h-1.499v2.449h3.148v-2.917h-5.819v-1.233h3.208l.052 1.6m9.281-3.744v5.904h1.534v-1.598h.973v-3.915h-1.198v1.911h1.349v-2.047h-1.602v.525h2.083v2.483h-5.845v-2.04h-.789v3.702h.88v-3.641h-.948v4.335h3.452l.11-5.619m5.549 4.51v-2.938h2.772v4.147h2.841v-3.81h-.802v5.102h-1.847v.465h1.748v-1.526h2.02v1.096H64.69v-5.162h-.212v-1.053h3.913v1.692h.213v.877h-5.318l-2.301 1.11M-65.78-5.156v-3.586h-.703v5.52h.117v-.123h.65V-.77h2.965v-2.312h-1.716v-.415h-3.122v-5.398h1.021v3.836h.864v-3.7h-1.462v1.7h.096v-.723h6.037l-4.747 2.626m9.183 1.636v-.447h-2.163v-2.47h4.639v5.592h.82v-5.508h-.433v-1.304h2.702v3.36h-1.671v1.204h-2.911v-6.083h-2.866v4.755h5.312v-.746h-3.397v.526h3.359l-3.391 1.122m11.013-1.598v-2.717h4.007v2.047h.569v1.564h-.853v-4.118h-2.162v-.992h-4.663v3.56h8.436v5.17h-.982v-4.74h-6.1v-2.88h3.937v1.787h.086v.577h2.306l-4.581.742m14.128.826v-.691h-4.937v2.166h2.517v2.503h2.891V-3.05h-3.732v-1.287h2.149v1.653h.07v.729h-5.87V-4.46h4.661v-2.985h-5.082v.54h2.933v5.973h3.246l1.154-3.36m9.714 1.744v-3.995h-2.798v3.937h1.942v-.414h-2.037v-.746h-3.992v-1.588h1.498v-2.27h6.494v6.403h-4.867v-6.54h4.506v4.616h-4.508v-4.527h-3.903v-1.626h-.04l7.705 6.75m2.736-6.853v2.442h2.914v5.384h-.586v-3.708h.124v.321h1.48V-6.1h2.527v3.467h.019v.536h-6.044v-3.625h7.496v2.587h-4.949v2.012h2.076v.524h2.312l-7.37-8.802m11.942 2.188v.912h4.471v4.254h-6.013v-3.7H-.6v4.724h-2.447V-4.63h-.323v-2.138h-1.67v.821h3.046v-2.99h-5.385v.846h4.398v3.93h1.146v-4.093h-1.347l-3.883 1.042m15.857 1.17v2.287H.9v-4.003h7.264v.317H1.479v2.312h2.005v.857h4.274v3.315h-.793v-3.38h.85v3.352H6.91V-4.45h1.031v3.933h1.43v-1.838H8l.792-3.687m6.795-2.441v6.53h-3.876V-3.34h1.454v-2.861h3.453v.163h1.23v5.277h-1.021v-4.324h-2.809v3.543h-.368V-3.89h-2.077v-.215h6.48v-3.679h.266v.825h-4.231l1.499-1.523m8.844 6.968v-6.248h4.515v3.775h-8.114v-5.201h.834v5.524h.431v1.412h6.956v-.57h-2.437v-3.53h.059v-.182h-1.318v2.84h-3.705v-.225h-.344v-1.784h8.046l-4.923 4.19m14.878-.825v1.135H34.98v-5.193h2.188v2.42h2.367v2.814h-4.544v-3.795h-.681v-4.227h-2.243v6.492h5.335v.349h1.708v-.961h-5.204v.754h4.425v-4.22h-3.242l4.22 4.432m4.548-2.891v3.681h-.191v-2.157h-2.142v-.854h5.08V-6.65h-1.732v.026h.464v2.218h2.152v2.344h-6.072v-4.052h6.068v3.822h1.03v-3.269h-6.393v3.315H40.69l3.167-2.982m7.29-4.142v3.178h6.57v5.693h1.203v-3.082h-5.728v-2.44h4.877v-2.245h-2.556v5.932h2.821v-4.52h-4.587v3.428h.239v1.335h-2.937v-6.027h5.74v2.923h-2.92L51.146-9.37m12.321 7.663V-3.52h-.532v-3.814h-1.642v.604h3.106v6.456h5.156v-.272h-.095V-1.78h-6.909v-6.806h1.083v5.675h2.628v-5.775h-2.713v4.699h5.712v2.015h-7.206l1.412.265M-62.898 7.22v-.668H-66.4v.246h1.44V4.133h3.491v-.61h-2.586V9h.047V.874h-4.4V5.43h5.673v1.224h-3.041v2.574h3.753V1.184h-4.685v3.534h.26l3.55 2.502m10.013-1.797v1.174h-3.245v1.747h-.105V6.848h1.546v-.94h3.373v-1.53h-7.816V1.22h2.677v4.444h4.073v2.558h-5.753V6.614h1.9v.92h4.468V2.6h-7.043l5.925 2.823m5.012-2.798v6.25h3.296V6.134h-4.78V.694h.226v.734h3.791v.608h2.546v4.14h-5.522v.035h-.2V4.783h2.372V7.59h4.697V3.787h-1.84v-.389h-1.005l-3.58-.773m15.976 4.795V2.688h-6.284v3.467h-.95v-4.44h5.373v-.04h-.61V6.9h-.085v-.128h-1.067V1.69h1.133v6.543h-3.236v.662h3.877v-6.99h.932V5.77h.774l.143 1.65m11.025 2.006V7.74h.124v.588h-6.58V2.474h6.44v5.22h-1.051V2.008h-.26V9.03h-.884V4.237h2.586v5.2h-.74V5.16h-3.24v2.53h3.01V4.713h-5.032l5.627 4.713m8.063-3.988v1.584h-1.15v2.214h1.375v-1.77h.484v1.767h-.571v-1.97h-.972V2.59h3.378v7.024h-.514V6.976h-4.361V3.297h.031V4.31h-3.648v-.235h8.082l-2.134 1.363m11.775 2.155v-.6h-3.533V6.15h4.23v3.253h-1.51V2.646h-6.698V4.8h2.508v3.204h-2.027v-.981h3.046v-2.6h-4.099v-2.86h3.85v1.21H-7.99v4.461h5.17l1.788.36m4.624-1.076v.484h2.28v2.15h1.417V7.12H5.65v-.138h.182v1.901h.541V1.51h-.645v6.418H.83V1.549h4.098V4.1h4.52v3.795H.807V1.57H5.32L3.592 6.518m9.862-.028v-.063h-.875V.971h-.637v6.404h6.047V1.186h-4.07V7.29h3.276v-.398h-2.522V2.529H10.95v-.15h-.277V1.12h2.845v4.385h3.125v-1.49h2.478L13.454 6.49m10.513.103v2.28h2.496V2.148h1.29V9.46h.654v-6.1h-3.365v.934h4.646v4.968h-2.681V5.94h1.676v-.485h-2.56v3.771h1.88V.922h-5.605v8.724h7.09l-5.52-3.053m12.388 2.278V2.843H33.18v.742h3.653v.592h2.206v2.817h-3.523v.54h2.948V4.512h-6.78v.886h4.48V1.622h-.76v4.501h-3.748v-.351h6.305v3.956h1.62l-3.224-.857m8.078-.384V2.408h4.659v4.283h-5.886V4.526h-.978v3.725h-.027v.381h2.365V2.797h-2.723v4.469h4.56v-4.91h3.093V8.85h-4.53V3.964h3.428V2.956H42.86l1.575 5.531m12.957-6.609v6.339h-5.424v-.95h4.205v-6.22h-3.137v2.36h2.214v1.857h-.228v-.745H52.63V1.704h3.48V1.62h-.685V6h-4.392V2.402h7.97v3.38h-.567l-1.043-3.904m11.174 2.035v1.168h-4.314V1.097h-2.146v7.444h1.628V7.275h3.837v.42h1.282V5.402h-2.793V1.025h-3.47v.82h3.752v.932h-4.657v2.969h5.997v3.358h-1.225l2.109-5.19m-130.333 8.133v1.18h-3.238v1.166h-3.684v-.47h6.099v3.7h.433v1.795h1.33v-2.46h-4.11v-2.834h3.609v.646h-5.286v.162h1.432V13.32h.268v2.12h1.048l2.099-3.393m11.151 7.43v-.448h-2.665v-4.761h2.88v5.061h-2.19v-2.192h-1.128V11.37h-1.368v2.812h4.164v2.96h-2.921v-5.755h-1.639v.413h1.245v6.744h-1.417V10.57h-3.483l8.522 8.906m5.122-8.175v1.309h-2.766v3.9h1.292v-3.434h.733v4.492h4.79v-2.753h-4.978v1.499h-1.832v-.604h5.57v1.225h-2.307V14.18h4.199v3.844h-7.576V16.22h-.34l3.215-4.919m12.86 2.372v4.442h-6.018V14.11h6.81v-1.512h-6.24v4.381h3.336v-1.977h-.28v-.532h-3.74v-.663h5.834v2.13h2.32v2.66h-4.993V11.88h2.368v1.87h-.096l.699-.078m6.423-.714v5.069h-1.82V16.77h2.702v-4.25h4.534v5.437h-8.132v-4.782h3.433v-.66h4.896v5.331h-.362V15.97h-8.325v-4.643h2.882v5.312h.614v-5.827h-2.094l1.672 2.147m7.652 4.929v-2.437h4.658v-4.104h-1.635v.761h3.328v6.531h-3.078v-5.456h-.064v-.661h4.88v5.975h-5.503v.902h3.747v.245h1.298v-3.462h-7.34v.48h1.311l-1.602 1.226m16.171-4.165v5.576h-.072v-1.637h1.754v1.065H-5.72V11.38h-.175v7.752h3.53v-.5h-3.3v-6.719h2.047v.897h-4.095v6.179h3.426v-.89h-4.507v-4.32h5.734l.672-.056m9.383 1.676v.579H.922v-3.55h.004v-1.085h2.948v6.227h4.682v-3.209H1.214v-.5h6.103v3.103h-2.58V12.74H2.475v-2.146H.886v1.662H8.87v4.017H1.092l5.903-.874m5.468-2.706v-1.256h2.3V13.1h-1.37v2.019h1.978v.552h2.786v-3.958h-2.71v5.3h-.271v-1.834h.668v3.803h.234v.414h2.024V12.16h.772v3.101H15.07l-2.608-2.568m9.398 1.679v3.193h5.902v1.01h-3.116v-6.081h-3.675v-.851h4.134v3.135h-1.848v.419h1.915v.336h1.34v-2.386h-2.845v3.8h.914v-4.995h2.63v5.199h-.883l-4.468-2.779m12.916-3.017v2.797h3.637v.101h.427v1.812h-8.126v-5.218h.822v4.663h4.826v-3.608h1.027v5.775h.803V12.79h-5.787v5.907h3.305v-1.168h1.826v.683h-4.777l2.017-6.856m12.552.51v5.946h2.11v.288h-7.525v-1.23h2.173v1.63h-.389v-2.07h-.802v-2.992h2.336v2.233h1.863v.648h-4.83v2.279h2.766v-4.411h3.665v.323h-7.297l5.93-2.645m9.615 1.724v2.18h1.76v-.835H54.39v-3.33h1.677v7.592h2.076v-7.36h-1.627v1.234h-3v3.088h-2.77v-5.111H52.7v.074h.789v4.19h2.687v-3.67h.118l.65 1.948m10.196-1.761v4.991h-2.4v-4.298h-3.17v2.629h3.366v-1.374h2.73v4.614h-4.414v-4.068h-2.26v-1.117h2.61v3.914h1.709v-.738h-2.302v-3.443h-.579v6.62h6.562l-1.852-7.73M-65.692 26.662v-5.085h1.697v7.266h-1.183v-4.567h4.26v2.44h-4.743v2.76h4.528v-3.622h.149v.37h-7.62V24.83h1.598v-.74h5.836v1.092h-3.779v-.409h-1.62l.877 1.889m7.184-.564v-.363h5.931v1.863h1.565v-1.853h-.828v-4.038h-2.973v4.211h3.497v-.753h-3.23v1.013h-3.736V26h-.743v-4.374h4.43v4.538h-3.73v.21h.816l-.999-.276m12.678-4.864v-.154h-1.85v8.333h5.892v-7.46h-1.769v.493h-5.304v.77h3.355v-1.085h4.035v1.343h-2.77v4.87h-2.446v-3.346h.321v1.786h1.313v-2.567h3.973l-4.75-2.983m12.864 4.173v.836h-4.925v1.016h5.056v-.596h-3.106v2.308h1.815v.377h2.382v-6.074h-4.01v5.875h2.255v-6.397h-4.788v2.979h6.143v3.422h-.88v-4.381h-3.207l3.265.635m10.742 1.948v-6.3h-5.097v.203h.488v3.483h.064v-.785h5.442v.235h.248v1.853H-29.1v-4.792h3.114v7.486h1.341v-3.037h2.75v-3.655h-.505v5.805h1.34l-1.164-.496m5.09-.982v-2.79h2.848v4.687h-2.438V25.4h2.398v2.961h-1.885v-.44h-2.503v-3.204h.989v3.817h2.414v-5.857h-3.321v1.893h1.338v-2.918h2.263v2.968H-17.2l.065 1.752m8.467-3.906v2.346h2.14v.864h4.151v2.868h-3.806v-1.02h3.68V27.5h.31v1.742h.487v-7.117h.517V25.3h-3.69v.223h2.716v3.27h-1.845v.743h2.637l-7.297-7.069m11.212 2.042v-2.742h4.06v2.419H9.14v2.229H3.097v-3.08H5.3v2.354h2.04v1.284h-1.9v-.95H.771v-5.128h.388v2.973h5.922v1.702h-.189v-.946h-4.05l-.298-.115m8.449-2.11v.816h2.908v4.958h-.97V23.2h.62v3.6h.619v-5.82h-2.1v7.416h1.857v-.532h5.49v.318H12.5v1.1h5.341v-8.028h-4.156v5.164H12.9l-1.908-4.02m18.083-.183v5.458h-1.117v-6.21h-2.739v4.295h2.187v2.287h-6.314V22.72h1.062v5.343h-.528v-2.36h5.761v2.261h2.247v1.292h-1.552v-6.663h-7.165v.179h1.193l6.965-.557m8.795 5.159v-5.997h-2.988v2.613h2.777v4.96h-.999v-5.727h-2.498v6.266h4.348v-4.945h-6.011v4.768h5.868v-5.388h-.648v5.198h-.385v-2.405h-3.167v1.694h-.062l3.765-1.037m8.052 1.41v-7.933h-4.843v2.518h4.076v2.557h3.278v-2.859h-4.842v2.907h5.173v-.538h-1.592v.756h-5.458v-.81h4.774V22.26h2.335v3.608h-.31v-1.053h-5.62l3.029 3.97m12.102-6.78v.392h.774v2.617H55.2v.393h1.63v-.873h-5.377v.588h3.311v-1.705h.616v3.137h-1.456v1.173h4.485v-4.32h-2.76v4.902h-2.937v-6.536h4.065l1.247.232m3.973 2.395v3.852h.198v-.43h7.408v1.31h-2.104v-1.368h2.162v1.54h-2.479v-2.937h-4.5v-5.106h1.33v7.783h2.117v.618h2.876v-3.374h-7.188v.173h.491l-.31-2.062M-61.528 39.294v-4.813h-6.66v2.575h4.467v-5.018h1.219v5.416h-.21v-1.127h-5.37v.076h.13v.794h4.254v-5.944h-3.013v3.891h2.103v1.785h-.492V33.35h.02l3.552 5.943m6.198-6.159v.363h1.307v5.497h-.24v-.814h-3.73v-.273h-.722v-4.5h4.703v5.241h-.597v-2.907h3.405v-1.08h-5.49v.538h2.33v2.974H-57.1v-5.25h-.403l2.173.211m6.513-2.497v3.5h7.565v.97h-4.108V32.57h-2.743v3.907h1.583v-.876h4.572v-4.264h-4.062v7.047h-.768v-3.552h.257v1.478h-2.306v-2.48h6.093v2.096h2.141l-8.224-5.29m10.577 7.316v-1.139h3.513v-1.896h-.61v-2.182h-2.203v6.78h5.984v-6.027h-2.083v-1.619h-.122v.245h2.214v2.277h-7.611v-3.219h1.998v1.991h.713v2.772h4.888l-6.682 2.017m16.32-4.136v-1.337h-6.904v.596h2.357v3.233h-2.327V33.7h5.996v2.752h-4.917v1.741h-.245v-1.29h3.232v-1.76h-.23v-1.386h2.578v5.386h-.222v-2.405h-2.986l3.668-2.923m8.461-2.107v2.257h1.247v4.717h-3.234v-7.38h-.019v1.36h-3.512v.335h1.603v-1.213h3.927v1.57h-.886v4.09h2.092V30.87h-6.437v3.296h8.135v4.146h-6.297l3.38-6.604m12.496 2.299v3.431h-1.981v-1.92h-.037v.219h.474v1.63h-.987v-3.844h-1.098v2.435h3.828v1.372h-1.667v1.752h-1.319V31.47h-.777v5.11h-1.843v-.582h-2.937l8.344-1.991m4.703-2.859v6.79h5.954v1.356H8.27v-7.086h.848V37.1h-2.95v2.458h3.185v-2.02H7.418v.325H1.292v-4.409H6v6.06h2.304v-6.25H4.646v-1.05h4.571l-5.48-1.067m11.143 5.629v-2.297h-2.886v3.467h-.284v-1.457h1.635V35.29h3.027v-3.095h2.4v3.76h-.256v-1.403h-6.472v3.17h7.287v.853h-5.617v-1.889h.266v1.037h4.215l-3.315-.947m8.653-3.869v3.996h.879v-4.98h2.122v.844h-4.178v6.668h5.79V31.71h-2.418v6.408H22.25v.724h3.187v-2.647h-3.721v.111h-.267v-1.004h3.806v.38h2.762l-4.483-2.774m14.86-.829v2.084h.548v2.362h-6.674v2.866h5.816v-6.998h-7.46v-1.637h1.078v4.679h4.503v-4.616h-4.894v3.59h-.193v-1.187h3.515v-1.004h3.121V30.78h-6.938l7.578 1.3m7.166-.568v6.354h-4.503v-4.618h2.826v4.807h-2.016v-1.418h2.186v1.43h-2.826v-5.283h1.639v-.347h6.843v7.202h-.438v-1.63h-8.395v-6.194h5.005v6.6H44.08l1.48-6.903m12.753 7.751v-5.658h-1.235v1.72h-1.156v3.355h-1.554v.954h4.83v-2.578h-3.68v-.483H53.77v.454h1.147v-3.221h2.453v2.639h-4.376v-2.85h3.84v1.648h-1.272l2.75 4.02m9.591-1.883v-5.857h-2.085v6.356h-4.402v-3.367h.612v3.666h.379v.838h3.256v-.673h-1.816v-1.497h1.299v-1.68h-.062v.02h.336v1.966h.308v1.63h-.52l2.695-1.401m-132.578 7.684v1.815h-1.033v-6.301h-3.226v1.713h8.32v6.359h-4.766v-5.695h-.783v4.601h4.996v-1.93h-2.074V44.51h-4.528v4.295h2.947v-4.333h-2.913v4.292h2.137l.923-3.7m11.777-3.244v4.977h-3.526v.054h1.41v-2.194h-2.916v2.402h3.693v1.794h-.4V45.9h3.874v1.834h.38v1.727h-.17v-1.177h-6.296v-3.973h-2.107v-.855h4.007l2.051-1.637m5.968 2.795v.006h-1.077v2.25h2.33v-5.117h1.25v4.879h-1.5v1.842h.569v-6.706h2.202v3.43h-1.172v2.485h3.166v-1.767h.102v.952h-4.371V41.68h1.334l-2.834 2.933m14.081 4.417v-2.254h-2.277v-2.712h3.025V41.25h-4.09v6.954h-1.511v.517h2.601v-4.948h1.584v-.443h-2.159v-1.954h.276v.197h1.135v6.582h-3.914v-1.83h.359l4.971 2.706m10.991-1.603v-4.576h-5.452v-1.04h3.711v.66h3.126v6.125h-5.632v-.317h-.38v-2.69h3.275v-.804h-2.904v2.57h3.887v1.722h-1.192v-5.455h.588v2.282h1.818l-.845 1.522m3.351-1.329v-.488h5.937v1.997h1.366v-2.14h-2.735v4.181h2.949V46.38h-6.476v-5.67h-1.293v2.792h5.008v-1.63h1.14v5.025h-2.868V41.55h.305v2.11h2.444l-5.777 2.437m11.595.32V44.45h-.614v4.71h4.414v-4.735H-7.8v3.155h6.708v-1.04h-5.976v-3.341h1.61v-1.012h3.35v7.328H-.67V47.71h-.328v-.798h-4.615v-5.8h-1.173l-.127 5.306m15.94-2.413v3.293H6.722v-2.612H2.01v3.218h-.924v-5.257h.41v2.94h5.502v.301h1.775v-.693h-3.87v-1.511h1.382v-2.12H5.89v6.901H3.895v-.707H8.8l.227-3.753m10.381 1.877v3.327H17.43V47.22h-.928v-4.853h2.08v2.617h-4.548v3.161h-1.228v-5.643h-1.63v.171h.2v1.472h7.544v2.164h-6.377v3.207h6.489v-2.52h-4.364l4.74-1.114m2.699-3.261v5.962h2.704v-5.241h1.138v5.088h-1.912v.018h-.573v-2.126h-1.09v3.27h6.722v-2.288h-2.157v-1.949h-.843v-3.822h-1.252v2.045h1.409v-1.246h2.221l-6.367.29m14.45.889v.551h1.38v-2.114h-1.57v.275h2.735v5.21h-.853v-5.147h.79v4.033h-6.244v-4.232h5.354v-.407h-2.79v4.708h-3.792v-.79h6.475v-4.506h-5.74l4.255 2.42m8.979 5.195v-1.01h3.906v1.415h-2.514v-3.613h-.094v-.406h-1.378v1.026h-4.494v-3.477h.341v1.724h.152v-.055h.069v.311h1.301V41.86h4.513v4.606h-5.05l3.248 2.241m8.404-.319v.433h1.799v-1.179h3.148V46.05H51.2v-3.174h2.183v2.766h3.468v-1.01h-3.703v-.173H51.84v1.425h6.78v-.554h-3.096v1.787h.673v-6.199H52.23l1.71 7.471m12.633.526v-5.027h1.762v-.069h-1.42v1.64h-.752v4.125h3.146v-1.908h-.96v-4.872h-5.474v.03h.494v1.939h-.687v-2.87h4.245v3.515h-.7v-3.265h2.482l-2.136 6.762m-131.655 6.069v-.276h-1.759v-.698h4.67v5.397h.606V53.54h-2.492v5.516h.044v-8.299h-4.893v2.73h3.943v1.854h.532v1.793h.011v.656h-4.908v-6.976h1.164l3.082 4.17m14.01.802v.907h-4.704v-5.389h-1.065v3.037h-1.83v.414h1.25v-3.396h1.709v.16h.733v2.525h4.163v3.885h-8.137v-4.737h3.604v-.867h4.54v4.807h-3.532l3.27-1.346m7.873 1.374v-1.874h-1.457v.041h1.184v-2.924h-5.72v-1.339h2.437v3.948h1.372v-2.597h4.945v7.325h-.134v-1.332h-6.552v-5.12h1.712v-1.206h2.774v4.998h-1.583l1.022.08m8.965 1.593v.168h.422v-6.789h1.304v5.17h-.88V53.01h-3.753v-.968h4.51v5.661h1.228v-4.12H-33v1.567h-2.423v-3.254h2.146v1.93h1.22v-2.882h-6.445l4.269 7.81m5.092-4.582v-1.8h8.648v7.182h-.696v-3.361h-7.372v-2.01h7.41v1.32h-2.106v-1.042h-5.174v1.389h7.688v2.482h-6.794v.746h3.918v-7.233h.144v.745h-4.664l-1.002 1.582m15.847 2.969v-2.407h-3.983v-2.337h6.64v5.928h-6.81v-7.289h.317v1.585h-1.765v1.03h4.854V50.8h-5.04v1.645h-.257V51.37h3.362v6.468h5.164v-.129h-.17l-2.312-.568m11.601-1.48v-1.853h-1.509v.67H-7.75v4.404h3.814v.342h.865v-3.896h-1.574v.83H-9.35v-4.753h3.405v7.83h3.74v.014h.41v-7.596h-1.926v-.406h-2.573l4.602 4.414m3.508.502v.953h4.69v-3.93H4.24v-2.14H2.063v6.408H8.16V52.06h-.63v5.539h1.46v-.752h-3.8v-1.944H3.493V56.3H1.896v1.006h5.138v-1.282h1.941l-7.159.138m16.504-.498v-1.9h-1.114v2.247h-6.131v-3.546h-.282v-.43h7.026v7.322h.248v-7.051h.393v1.141h-2.43v5.883h2.524v-5.244h.257v1.376h-2.529v-3.765h-.24l2.277 3.967m8.302 3.26v-4.518h-5.884v-3.521h.713v3.785h2.078v1.343h5.35v-1.028h-4.046v-2.137h-2.157v-1.142h2.557v3.708h1.77v-.522h-2.866v4.648h5.35v-.954h-5.223l2.358.338m4.4-8.32v2.545h3.707v-.49h-2.386v6.778h5.903v-6.79h-6.38v3.888h.833V51.27h1.761v.18h-.32v7.538h1.474v-1.261h3.592v-.411H37.12v-.634h-3.421l-2.678-6.078m17.077 6.816v-4.78h-6.55v2.693h4.782V52.47h3.199v6.5h-2.851v-4.887h2.473v3.47h-.646V53.31h-3.42v1.49H43.17v-.391h-1.08v3.852h.481v-7.293h-.707l6.233 6.452m9.393-.122v1.165h-3.166v-6.971h.082v-.17h.015v.182h.57V54.1h4.29v3.822h-8.744v-7.199h.276v.471h2.57v3.526h-.411v-2.194h-1.46v1.759h-.891l6.869 3.012m3.186-6.762v1.048h4.46v3.189h-2.309v-2.53h6.039v3.415h-1.592v1.055h-3.956v-1.74h.46v2.595h4.199v-6.61h-6.512v3.579h1.115v-3.19h2.172v1.664h-.75l-3.326-2.475M-63.242 68.952V64.94h-2.809v3.973h1.808v-.894h-4.152v-2.903h2.944v-2.618h-3.256v.908h3.97v3.087H-67.6v2.973h5.975V62.91h-5.294v1.02h5.398v.014h-.17l-1.551 5.009m7.481-5.905V61.23h-.094v7.805h2.402v-6.102h-3.493v1.09h6.217v3.362h-2.336v-2.797h-3.958v-.76h4.413v3.785h1.426v-1.51h-8.052v-4.95h3.047v6.225h3.881l-3.453-4.331m13.57 6.115V61.24h-4.556v3.963h2.565v2.822h-3.47v.56h2.369v-5.678h-1.971v-1.453h2.342v2.895h-3.723v.45h2.371v2.638h3.415v-.753h-2.961v-5.728h-1.749l5.368 8.206m3.314-8.537v3.25h6.129v2.478h-4.404v-4.44h4.546v5.259h-1.837v-.042h.265v1.292h-2.769v-4.975h3.057v-2.04h-1.732v.606h2.765v4.273h-5.683v-1.14h3.817l-4.154-4.521m13.458 4.291v-1.76h-.854v3.58h.711v-4.403h4.414v3.143h-1.505v1.948h.843v-5.012h.935v4.134h-5.635v-.219h-.862v-4.805h2.863v4.72h-4.531v-3.227h2.076l1.545 1.901m13.535-1.093v-1.14h-6.182v5.076h6.807v-2.903h-4.559v-3.964h-2.917V63.4h4.468v4.675h-4.425v-4.392h4.657v-2.845h-4.44v3.66h1.146v-2.94h2.41v2.799h-3.677l6.712-.535m4.85.771v-.686h5.217v-1.046H-7.01v.531h2.213v1.596h-.436V62.57h-3.981v-1.117h4.551v4.536H-.58v2.128h-6.81v-6.099h4.57v4.474h-4.235v-3.565h.074l-.052 1.666m11.495-1.501v-.772H.612v-1.447h1.333v6.647h6.082v-6.046H4.115V68.7h1.168v-3.655h-.464v-.98h3.758v.6H2.553v-3.871H1.45v3.302h7.118v-.565H6.196l-1.734-.439m8.345-2.131v2.298h1.602v-2.281h-2.072v-.242h-.92v4.36h3.145v-3.517h1.264v7.232h-1.058v-5.296h.7v3.467h-.479v-3.254h1.53v-.378h-1.07v3.332h-2.156l-.486-5.72m11.049 3.809v3.691h-.306v-2.165h-2.174v-1.92h8.285v4.794h-2.876v-4.316h-2.393V61.32h-.334v7.568h2.08v.728h2.51v-4.39h-2.983v3.032h-3.376v.592h3.208l-1.64-4.079m13.044 2.409v-1.455h.626v3.155h-2.349v-3.212h2.907v-4.096h-3.558v1.019h-3.77v-.835h5.076v6.05h-5.062V61.24h3.167v6.258h4.214v-5.854h-2.938v3.37h-.105L36.9 67.18m12.547-3.09v5.235h-1.223v-6.37h-4.506v3.864h.308v1.916h1.535v-1.648h-.06v.39h2.012v.057h.363v-6.552H41.92v6.404h4.8v-3.25h2.633v3.442h-1.04l1.133-3.489m3.553-1.289v1.277h5.987v2.942h-3.881V65.6h1.994v.708h-5.907v-2.893h4.611v4.716h-3.316v1.11h5.691v-7.394h-1.714v.326h2.498v3.457h-.851v-3.507h.268l-5.38.678m11.838.366v1.25H61.06v-1.83h1.147v5.11h6.758V65.5h-1.343v2.875h-4.007V67.26h2.515v-5.48h-.604v5.546h1.776v-.993h-5.74v-1.618h1.669v-.619h5.62l-4.014-.929M-61.197 75.76v.283h-7.68v-2.46h4.84v5.891h2.06v-7.576h-1.348v2.487h-4.896v2.109h1.55v-.657h5.164v-2.746h-4.328v6.248h4.034v-6.47h-4.904v2.275h1.275l4.233.617m9.277-3.745v.565h-6.969v.604h2.638v4.502h5.33v-.586h-3.33v1.673h-.966v-6.106h-3.115v3.167h6.338v-4.703h-5.21v1.528h-.303v6.733h5.718v-7.747h-2.222l2.09.37m10.891 7.378V77.05h-3.534v-.645h-2.73v-3.767h-1.159v2.682h3.782v1.369h-1.779v.216h1.25v-3.781h-.122v-.731h-3.665v-.429h6.306v5.266h-.134v-.77h-5.029l6.815 2.934m9.713-1.857v-2.063h-1.392v1.114h-3.548v.101h-.325v-1.724h1.473v-1.407h2.089v1.509h-2.635v-3.443h.903v4.748h-3.005v1.665H-38.8V73.86h6.978v-1.096h-5.693l6.2 4.773m10.426 1.885v-1.736h-.039V75.95h-8.257v-4.416h4.062v2.23h1.795v-.31h-1.354v2.088h2.094v1.187h-3.282v1.76h-1.061v-4.513h5.94v2.095h-7.965v-3.656h7.914l.153 7.007m4.5-2.9v.799h2.737v-4.65h-5.15v.15h1.664v.186h.382v1.608h-1.263v2.93h6.119v-5.853h-2.285v7.618h1.395v-2.233h-1.729v-.827h-3.25v2.465h2.724l-1.344-2.193m15.177-2.564v2.14h-7.865v-4.427h4.657v5.826h2.236v2.023H-.8v-2.284h-2.592v-3.394h1.515v-1.63h.64v2.335h-6.287v4.919h6.029v-4.889h-5.76V71.88h3.508l2.536 2.079m7.486-2.304v.738H.964v.022h.188v1.134h4.253v2.881h-2.93v-5.633H1.14v2.845h5.61v.338h1.614v-1.262H1.456v1.72h-.44v-1.579h1.752v-1.163h3.617l-.11-.04m5.241.847v3.193h6.654v-3.987h-2.603v5.912h3.27V76.1h-7.23v-.873h4.105v2.71H10.8v-6.108h6.075v2.746H12.08v3.89h2.055V78.4h-.346v-.462h-2.84l.567-5.436m10.028.007v3.316h7.263v-.76h-3.666v-.395h-1.795v.943h3.851v.288h1.409v-.81h-4.382V70.76h-2.96v3.762h.546v1.29h6.297V72.4h1.324v6.05H24l-2.457-5.942m10.222 5.445V76.9h3.517v-1.155h2.664v-3.94H36.21v-.01h.492v1.75h-.723v-2.566h-3.774v6.576h6.556v-1.703h.153v.605H33.32v-1.045h2.711v4.224h3.152l-7.418-1.683m16.973-.405v-1.751h-.091v-1.55h-7.624V72.74h1.655v-.996h3.824v1.171h-3.125v2.363h2.066v.844h-4.227v-2.72h4.866v5.917h1.672v.305h1.798v-.39h-2.191l1.377-1.686m10.218.043v-.576h-4.041v-2.239h-2.35v-3.095h3.707v.87h3.254v6.952h-.437v-2.329h-2.742V72.83H52.27v5.97h3.035v-2.953h2.602V70.83h-5.835v7.142h-.712l7.595-.382m1.675-3.464v-2.909h3.332v6.532h-3.177V71.23h3.032v6.811h-1.764v.01h-.205v-.91h4.322v-5.7h-1.276v2.849h-3.397v1.041h3.895v1.43h-1.149v-5.286h.04l-3.653 2.651M-62.535 89.093v-.552h-3.788v-1.12h3.257v-2.006h-.28v-2.518h-3.35v2.08h1.062v-3.446h.738v3.787h.205v1.313h-2.064v-1.943h-.763v-3.344h1.303v6.788h-2.382l6.062.961m4.983-4.603v-3.108h1.879v-.42h-1.402v1.985h.098v.879h4.185v3.09h-2.203v-2.035h-1.094v3h-3.192v-7.238h.4v2.435h2.723v4.71h5.518v.532h-6.14l-.772-3.83m10.173.034v-2.23h6.121v2.559h-5.328v.073h.052v.49h2.416v3.56h.034v-.682h-2.61v-3.22h1.754v-.94h4.275v3.703h-8.168v-4.188h4.732v5.428h.288l-3.566-4.553m9.249-3.75V87.4h6.119v-6.463h-5.54v8.638h6.416V86.43h-6.529v2.597h4.026v-7.516h-1.394v3.262h-2.172v-2.931h4.18v2.768h-3.672v-.506h5.86v3.488h-.29l-7.003-6.819m10.833 5.567v-3.625h-1.091v3.383h-.074v-1.39h.667v4.328h4.783v-3.598h-.655v-2.581h-3.761v6.895h6.914v-.967h-3.84v-.773h-4.052V84.78h1.762v-.2h-.82l.167 1.762m10.329-5.335v3.33h-2.18v-2.254h7.595v1.678h-.609v5.158h-1.33v-6.453h3.141v7.008h-1.39V81.93h-1.102v4.394h-5.837v-2.148h-.716v-3.063h2.293v1.71h.023l.112-1.817m7.917 1.384v.627h2v.046h.219v.83h5.14v-.77h-4.64v3.859h2.25v2.43h3.106V86.73H-5.28v-3.6h-.086v-.352H-7.05v-.324h-2.126v-1.07h3.597L-9.05 82.39m17.569-.286v2.73H3.006v-.691h5.463v-.421H7.385v3.464H5.828v1.14H3.155v-3.671h.012v-.37H.673v-3.502h1.025v5.282H9.45v2.314H3.332v-3.178h2.77l2.417-3.097m4.027-1.194v.917h4.241v2.741H11.64v1.015h6.26v-4.956h-7.25v.02h.607v3.33h6.77v-1.916h-.287v6.48h-4.422v-3.013h3.373v-2.495h-2.592v6.273h3.466l-5.018-8.397m8.823 6.965v-2.936h3.049v-3.607h-.552v6.74h-1.874v-.635h5.639v1.221h-3.563v.576h3.852V81.64h-2.395v5.248h.043v-.304h-2.366v-1.991H22.09v3.065h6.34l-7.062.217m15.266-4.348v.864H31.08v-1.935h8.041v4.42h-4.254v-2.53h-3.97v-2.885h3.699v.488h2.898v6.229h-4.625v-5.613h-.99v4.758h4.864v-2.848h-5.21v.772h4.757l.344-1.72m11.442-1.512v.53h-7.008v.094h.588v3.045H48V81.4h-3.835v7.134h-.182v.372h1.334v-3.218h2.161V87.5h1.16v-3.598h-.913v4.718H44.44v-7.425h-1.006l4.643.82m8.229 3.246v-2.467h-4.587v3.445h.419v2.259h1.352v-3.335h2.014v2.268h1.72v-1.113h-4.466v-4.382h3.798v1.206h-3.034v2.722h4.98V84.15h.62v2.764h-4.68l1.864-1.654m12.279-3.143v3.07h-3.673v-2.062h-.166v-.782h4.786v7.135h-1.566v-7.99h-2.353v5.48h-.751v-2.575h-4.04v-2.935h4.47v4.508h3.982v2.325h-6.287v-4.7h3.623l1.975-1.474M-63.39 93.522v.608h2.641v4.25h-5.928v-2.906h2.826v-3.796h-.256v7.365h1.372v-2.64h-4.234v-3.505h-.534v-1.471h2.424v2.663h4.779v5.098h-2.332v-2.194h-2.045l1.287-3.472m11.684 2.137v-1.905h-1.704v-.746h-3.636v.179h1.27v6.202h4.612V94.77h-4.956v3.034h5.426v-.537h-2.666v-3.46h.023v.673h-5.092v.6h3.408v-.692h-2.989l6.304 1.27m8.253 1.452v-3.226h1.155V99.4h1.192v-3.887h-1.447v2.399h1.807v-.316h-.407v-2.391h-4.121V93.5h1.704v-1.681h-.096v.63h3.184v6.276h-4.733v-5.902h-2.756l4.518 4.287m5.509.901v.331h1.594v-2.075h-2.54v-3.56h1.309v6.285h4.644V95.32h-1.668v.944h-2.853v3.23h6.907v-.851h-5.268v-7.958h-2.734v4.45h2.875V91.39h-.182l-2.084 6.621m16.014 1.203V92.59h-7.132v-.827h5.545v.634h2.873v5.88h-6.135v-3.154h1.188v-4.191h-2.942v3.26h-.888v-3.2h1.108v5.096h-1.05v-5.354h.52v2.802h5.373l1.54 5.678m3.105-6.779v1.442h7.37v.116h.03v.368h.874v4.773h-2.703V94.07h2.277v3.076h-2.912v-6.041h-3.819v7.739h3.39v-1.826h.257v2.597h3.543v-.95h-4.28l-4.027-6.23m15.909 2.982v1.255h-3.855v-2.13h-.713v-2.885h2.532v2.598h-3.66v.33h.277v1.326h6.995v-1.73h.382v2.953h-3.153v1.605h-1.306v-6.743h2.247v2.642h-4.95l5.204.779m9.326 1.665v-3.86H4.362v-1.878h-.249v8.007h4.375v-5.787H5.825v5.55H6.99v-3.713h-.883v-3.964h-1.08v2.504h2.878v5.748h1.329v-2.475H6.913V94.21H1.156l5.254 2.87m6.04-4.39v-1.32h2.044v.07h.376v1.842h-.1v.218h1.604v-1.616h-.1v-.777h-3.73v.473h2.4v2.751h4.613v5.003h-1.639v-7.816H15.04v2.342h2.985l-5.574-1.17m15.519-.696v.046h-.535v5.569h.554v-6.346h-4.335v5.794h1.694v-.913h-3.596v-.535h5.858v2.161h1.934v1.349h-2.597v-4.68h-4.614v4.422h3.83v-8.256h-5.441l7.249 1.39m7.011-.599v3.808h-.286v-2.388h-1.761v-.339h-1.866v-.003h.034v.186h.997v5.128h-.927v-5.027h.432v2.8h5.088v-1.384h2.486v2.977h-2.442v-3.091h1.131l-2.886-2.667m8.541-.291v5.616h.847v2.771h4.656v-2.588h-4.947v2.674h4.69V95.47h-2.212v-1.937h-.136V92.13h1.69v-.417h-2.437v6.3h-4.59v-4.836h3.08v6.128h4.406l-5.047-8.2m7.921 3.184v.98h4.676v-3.713h-.57v5.031h-2.226v-1.635h.177v.538h3.807v2.171h1.269v-3.919h-1.091v4.53h-4.363v-4.284h4.44v4.91h-1.59v-8.023h-3.866l-.663 3.414m15.74 2.948v-.174h-1.428v.98h-3.915v-1.11h2.832v-3.687h.279v1.081h-3.743v-.297h7.86v2.143H60.8v-4.387h5.285v-1.228H60.73v.598h2.575v4.2h2.345l1.535 1.88"/>
</svg>
